<svg width="15" height="14" viewBox="0 0 15 14" fill="none" xmlns="http://www.w3.org/2000/svg">
<path d="M6.32284 1.09367C6.63044 0.189974 7.90856 0.189977 8.21616 1.09367L9.19968 3.98313C9.33763 4.3884 9.71824 4.66091 10.1463 4.66091H13.2266C14.2065 4.66091 14.6017 5.92416 13.7964 6.48263L11.3857 8.15456C11.0188 8.40901 10.8651 8.87584 11.0089 9.29851L11.9484 12.0586C12.2593 12.9718 11.2245 13.7523 10.4319 13.2025L7.83939 11.4046C7.49664 11.1668 7.04235 11.1668 6.6996 11.4046L4.10713 13.2025C3.31446 13.7523 2.27974 12.9718 2.59057 12.0586L3.53006 9.29851C3.67392 8.87584 3.52017 8.40901 3.15329 8.15456L0.742548 6.48263C-0.0626895 5.92416 0.332497 4.66091 1.31244 4.66091H4.39265C4.82075 4.66091 5.20137 4.3884 5.33931 3.98313L6.32284 1.09367Z" fill="#FFA858"/>
</svg>
